<svg width="143" height="141" viewBox="0 0 143 141" fill="none" xmlns="http://www.w3.org/2000/svg">
<path d="M91.0167 3.77038C91.0025 3.49461 91.2146 3.25955 91.4904 3.24537L95.9844 3.01435C96.2602 3.00018 96.4953 3.21225 96.5094 3.48802C96.5236 3.7638 96.3115 3.99886 96.0358 4.01303L92.041 4.21839L92.2464 8.21311C92.2606 8.48889 92.0485 8.72395 91.7727 8.73812C91.4969 8.7523 91.2619 8.54023 91.2477 8.26445L91.0167 3.77038ZM114.385 103.437C119.652 94.0399 124.782 79.0728 123.136 61.5345C121.491 44.0099 113.078 23.8714 91.1811 4.11595L91.851 3.37348C113.918 23.2824 122.462 43.6464 124.131 61.4411C125.8 79.2222 120.601 94.3911 115.258 103.926L114.385 103.437Z" fill="white"/>
<path d="M5.634 136.016C4.638 136.016 3.672 135.884 2.736 135.62C1.812 135.344 1.068 134.99 0.504 134.558L1.494 132.362C2.034 132.758 2.676 133.076 3.42 133.316C4.164 133.556 4.908 133.676 5.652 133.676C6.48 133.676 7.092 133.556 7.488 133.316C7.884 133.064 8.082 132.734 8.082 132.326C8.082 132.026 7.962 131.78 7.722 131.588C7.494 131.384 7.194 131.222 6.822 131.102C6.462 130.982 5.97 130.85 5.346 130.706C4.386 130.478 3.6 130.25 2.988 130.022C2.376 129.794 1.848 129.428 1.404 128.924C0.972 128.42 0.756 127.748 0.756 126.908C0.756 126.176 0.954 125.516 1.35 124.928C1.746 124.328 2.34 123.854 3.132 123.506C3.936 123.158 4.914 122.984 6.066 122.984C6.87 122.984 7.656 123.08 8.424 123.272C9.192 123.464 9.864 123.74 10.44 124.1L9.54 126.314C8.376 125.654 7.212 125.324 6.048 125.324C5.232 125.324 4.626 125.456 4.23 125.72C3.846 125.984 3.654 126.332 3.654 126.764C3.654 127.196 3.876 127.52 4.32 127.736C4.776 127.94 5.466 128.144 6.39 128.348C7.35 128.576 8.136 128.804 8.748 129.032C9.36 129.26 9.882 129.62 10.314 130.112C10.758 130.604 10.98 131.27 10.98 132.11C10.98 132.83 10.776 133.49 10.368 134.09C9.972 134.678 9.372 135.146 8.568 135.494C7.764 135.842 6.786 136.016 5.634 136.016ZM17.4545 135.944C16.4225 135.944 15.4925 135.734 14.6645 135.314C13.8485 134.882 13.2065 134.288 12.7385 133.532C12.2825 132.776 12.0545 131.918 12.0545 130.958C12.0545 129.998 12.2825 129.14 12.7385 128.384C13.2065 127.628 13.8485 127.04 14.6645 126.62C15.4925 126.188 16.4225 125.972 17.4545 125.972C18.4745 125.972 19.3625 126.188 20.1185 126.62C20.8865 127.04 21.4445 127.646 21.7925 128.438L19.6145 129.608C19.1105 128.72 18.3845 128.276 17.4365 128.276C16.7045 128.276 16.0985 128.516 15.6185 128.996C15.1385 129.476 14.8985 130.13 14.8985 130.958C14.8985 131.786 15.1385 132.44 15.6185 132.92C16.0985 133.4 16.7045 133.64 17.4365 133.64C18.3965 133.64 19.1225 133.196 19.6145 132.308L21.7925 133.496C21.4445 134.264 20.8865 134.864 20.1185 135.296C19.3625 135.728 18.4745 135.944 17.4545 135.944ZM27.3153 125.972C28.8153 125.972 29.9673 126.332 30.7713 127.052C31.5753 127.76 31.9773 128.834 31.9773 130.274V135.8H29.3493V134.594C28.8213 135.494 27.8373 135.944 26.3973 135.944C25.6533 135.944 25.0053 135.818 24.4533 135.566C23.9133 135.314 23.4993 134.966 23.2113 134.522C22.9233 134.078 22.7793 133.574 22.7793 133.01C22.7793 132.11 23.1153 131.402 23.7873 130.886C24.4713 130.37 25.5213 130.112 26.9373 130.112H29.1693C29.1693 129.5 28.9833 129.032 28.6113 128.708C28.2393 128.372 27.6813 128.204 26.9373 128.204C26.4213 128.204 25.9113 128.288 25.4073 128.456C24.9153 128.612 24.4953 128.828 24.1473 129.104L23.1393 127.142C23.6673 126.77 24.2973 126.482 25.0293 126.278C25.7733 126.074 26.5353 125.972 27.3153 125.972ZM27.0993 134.054C27.5793 134.054 28.0053 133.946 28.3773 133.73C28.7493 133.502 29.0133 133.172 29.1693 132.74V131.75H27.2433C26.0913 131.75 25.5153 132.128 25.5153 132.884C25.5153 133.244 25.6533 133.532 25.9293 133.748C26.2173 133.952 26.6073 134.054 27.0993 134.054ZM40.4047 125.972C41.6047 125.972 42.5707 126.332 43.3027 127.052C44.0467 127.772 44.4187 128.84 44.4187 130.256V135.8H41.6107V130.688C41.6107 129.92 41.4427 129.35 41.1067 128.978C40.7707 128.594 40.2847 128.402 39.6487 128.402C38.9407 128.402 38.3767 128.624 37.9567 129.068C37.5367 129.5 37.3267 130.148 37.3267 131.012V135.8H34.5187V126.116H37.2007V127.25C37.5727 126.842 38.0347 126.53 38.5867 126.314C39.1387 126.086 39.7447 125.972 40.4047 125.972ZM65.8856 137.15C65.4776 137.654 64.9796 138.038 64.3916 138.302C63.8156 138.566 63.1796 138.698 62.4836 138.698C61.5476 138.698 60.7016 138.494 59.9456 138.086C59.1896 137.69 58.3256 136.982 57.3536 135.962C56.2136 135.818 55.1936 135.452 54.2936 134.864C53.4056 134.276 52.7096 133.52 52.2056 132.596C51.7136 131.66 51.4676 130.628 51.4676 129.5C51.4676 128.264 51.7616 127.154 52.3496 126.17C52.9496 125.174 53.7716 124.394 54.8156 123.83C55.8716 123.266 57.0536 122.984 58.3616 122.984C59.6696 122.984 60.8456 123.266 61.8896 123.83C62.9336 124.394 63.7556 125.174 64.3556 126.17C64.9556 127.154 65.2556 128.264 65.2556 129.5C65.2556 130.964 64.8416 132.248 64.0136 133.352C63.1976 134.456 62.1116 135.224 60.7556 135.656C61.0556 135.968 61.3436 136.19 61.6196 136.322C61.9076 136.466 62.2136 136.538 62.5376 136.538C63.3176 136.538 64.0016 136.226 64.5896 135.602L65.8856 137.15ZM54.4196 129.5C54.4196 130.28 54.5876 130.976 54.9236 131.588C55.2716 132.2 55.7456 132.68 56.3456 133.028C56.9456 133.364 57.6176 133.532 58.3616 133.532C59.1056 133.532 59.7776 133.364 60.3776 133.028C60.9776 132.68 61.4456 132.2 61.7816 131.588C62.1296 130.976 62.3036 130.28 62.3036 129.5C62.3036 128.72 62.1296 128.024 61.7816 127.412C61.4456 126.8 60.9776 126.326 60.3776 125.99C59.7776 125.642 59.1056 125.468 58.3616 125.468C57.6176 125.468 56.9456 125.642 56.3456 125.99C55.7456 126.326 55.2716 126.8 54.9236 127.412C54.5876 128.024 54.4196 128.72 54.4196 129.5ZM75.4751 135.8L73.0451 132.29H72.9011H70.3631V135.8H67.4471V123.2H72.9011C74.0171 123.2 74.9831 123.386 75.7991 123.758C76.6271 124.13 77.2631 124.658 77.7071 125.342C78.1511 126.026 78.3731 126.836 78.3731 127.772C78.3731 128.708 78.1451 129.518 77.6891 130.202C77.2451 130.874 76.6091 131.39 75.7811 131.75L78.6071 135.8H75.4751ZM75.4211 127.772C75.4211 127.064 75.1931 126.524 74.7371 126.152C74.2811 125.768 73.6151 125.576 72.7391 125.576H70.3631V129.968H72.7391C73.6151 129.968 74.2811 129.776 74.7371 129.392C75.1931 129.008 75.4211 128.468 75.4211 127.772ZM80.0727 129.608H85.1667V131.858H80.0727V129.608ZM92.2319 135.944C91.1999 135.944 90.2699 135.734 89.4419 135.314C88.6259 134.882 87.9839 134.288 87.5159 133.532C87.0599 132.776 86.8319 131.918 86.8319 130.958C86.8319 129.998 87.0599 129.14 87.5159 128.384C87.9839 127.628 88.6259 127.04 89.4419 126.62C90.2699 126.188 91.1999 125.972 92.2319 125.972C93.2519 125.972 94.1399 126.188 94.8959 126.62C95.6639 127.04 96.2219 127.646 96.5699 128.438L94.3919 129.608C93.8879 128.72 93.1619 128.276 92.2139 128.276C91.4819 128.276 90.8759 128.516 90.3959 128.996C89.9159 129.476 89.6759 130.13 89.6759 130.958C89.6759 131.786 89.9159 132.44 90.3959 132.92C90.8759 133.4 91.4819 133.64 92.2139 133.64C93.1739 133.64 93.8999 133.196 94.3919 132.308L96.5699 133.496C96.2219 134.264 95.6639 134.864 94.8959 135.296C94.1399 135.728 93.2519 135.944 92.2319 135.944ZM102.672 135.944C101.652 135.944 100.734 135.734 99.9176 135.314C99.1136 134.882 98.4836 134.288 98.0276 133.532C97.5716 132.776 97.3436 131.918 97.3436 130.958C97.3436 129.998 97.5716 129.14 98.0276 128.384C98.4836 127.628 99.1136 127.04 99.9176 126.62C100.734 126.188 101.652 125.972 102.672 125.972C103.692 125.972 104.604 126.188 105.408 126.62C106.212 127.04 106.842 127.628 107.298 128.384C107.754 129.14 107.982 129.998 107.982 130.958C107.982 131.918 107.754 132.776 107.298 133.532C106.842 134.288 106.212 134.882 105.408 135.314C104.604 135.734 103.692 135.944 102.672 135.944ZM102.672 133.64C103.392 133.64 103.98 133.4 104.436 132.92C104.904 132.428 105.138 131.774 105.138 130.958C105.138 130.142 104.904 129.494 104.436 129.014C103.98 128.522 103.392 128.276 102.672 128.276C101.952 128.276 101.358 128.522 100.89 129.014C100.422 129.494 100.188 130.142 100.188 130.958C100.188 131.774 100.422 132.428 100.89 132.92C101.358 133.4 101.952 133.64 102.672 133.64ZM119.723 122.444V135.8H117.041V134.684C116.345 135.524 115.337 135.944 114.017 135.944C113.105 135.944 112.277 135.74 111.533 135.332C110.801 134.924 110.225 134.342 109.805 133.586C109.385 132.83 109.175 131.954 109.175 130.958C109.175 129.962 109.385 129.086 109.805 128.33C110.225 127.574 110.801 126.992 111.533 126.584C112.277 126.176 113.105 125.972 114.017 125.972C115.253 125.972 116.219 126.362 116.915 127.142V122.444H119.723ZM114.503 133.64C115.211 133.64 115.799 133.4 116.267 132.92C116.735 132.428 116.969 131.774 116.969 130.958C116.969 130.142 116.735 129.494 116.267 129.014C115.799 128.522 115.211 128.276 114.503 128.276C113.783 128.276 113.189 128.522 112.721 129.014C112.253 129.494 112.019 130.142 112.019 130.958C112.019 131.774 112.253 132.428 112.721 132.92C113.189 133.4 113.783 133.64 114.503 133.64ZM131.807 130.994C131.807 131.03 131.789 131.282 131.753 131.75H124.427C124.559 132.35 124.871 132.824 125.363 133.172C125.855 133.52 126.467 133.694 127.199 133.694C127.703 133.694 128.147 133.622 128.531 133.478C128.927 133.322 129.293 133.082 129.629 132.758L131.123 134.378C130.211 135.422 128.879 135.944 127.127 135.944C126.035 135.944 125.069 135.734 124.229 135.314C123.389 134.882 122.741 134.288 122.285 133.532C121.829 132.776 121.601 131.918 121.601 130.958C121.601 130.01 121.823 129.158 122.267 128.402C122.723 127.634 123.341 127.04 124.121 126.62C124.913 126.188 125.795 125.972 126.767 125.972C127.715 125.972 128.573 126.176 129.341 126.584C130.109 126.992 130.709 127.58 131.141 128.348C131.585 129.104 131.807 129.986 131.807 130.994ZM126.785 128.096C126.149 128.096 125.615 128.276 125.183 128.636C124.751 128.996 124.487 129.488 124.391 130.112H129.161C129.065 129.5 128.801 129.014 128.369 128.654C127.937 128.282 127.409 128.096 126.785 128.096Z" fill="white"/>
</svg>
