<svg width="241" height="114" viewBox="0 0 241 114" fill="none" xmlns="http://www.w3.org/2000/svg">
<path d="M9.63218 8.0833C9.45411 7.87225 9.48084 7.5568 9.69189 7.37872L13.1312 4.47679C13.3422 4.29872 13.6577 4.32545 13.8358 4.5365C14.0139 4.74756 13.9871 5.06301 13.7761 5.24108L10.7189 7.82058L13.2984 10.8777C13.4765 11.0888 13.4497 11.4042 13.2387 11.5823C13.0276 11.7604 12.7122 11.7337 12.5341 11.5226L9.63218 8.0833ZM88.5196 73.3234C87.0304 62.655 82.064 47.6328 70.1464 34.6608C58.2381 21.699 39.3581 10.7493 9.97211 8.25908L10.0565 7.26265C39.6708 9.77227 58.7909 20.8227 70.8828 33.9843C82.9653 47.1358 87.999 62.3603 89.51 73.1851L88.5196 73.3234Z" fill="white"/>
<path d="M92.573 109.252C91.411 109.252 90.284 109.098 89.192 108.79C88.114 108.468 87.246 108.055 86.588 107.551L87.743 104.989C88.373 105.451 89.122 105.822 89.99 106.102C90.858 106.382 91.726 106.522 92.594 106.522C93.56 106.522 94.274 106.382 94.736 106.102C95.198 105.808 95.429 105.423 95.429 104.947C95.429 104.597 95.289 104.31 95.009 104.086C94.743 103.848 94.393 103.659 93.959 103.519C93.539 103.379 92.965 103.225 92.237 103.057C91.117 102.791 90.2 102.525 89.486 102.259C88.772 101.993 88.156 101.566 87.638 100.978C87.134 100.39 86.882 99.6058 86.882 98.6258C86.882 97.7718 87.113 97.0018 87.575 96.3158C88.037 95.6158 88.73 95.0628 89.654 94.6568C90.592 94.2508 91.733 94.0478 93.077 94.0478C94.015 94.0478 94.932 94.1598 95.828 94.3838C96.724 94.6078 97.508 94.9298 98.18 95.3498L97.13 97.9328C95.772 97.1628 94.414 96.7778 93.056 96.7778C92.104 96.7778 91.397 96.9318 90.935 97.2398C90.487 97.5478 90.263 97.9538 90.263 98.4578C90.263 98.9618 90.522 99.3398 91.04 99.5918C91.572 99.8298 92.377 100.068 93.455 100.306C94.575 100.572 95.492 100.838 96.206 101.104C96.92 101.37 97.529 101.79 98.033 102.364C98.551 102.938 98.81 103.715 98.81 104.695C98.81 105.535 98.572 106.305 98.096 107.005C97.634 107.691 96.934 108.237 95.996 108.643C95.058 109.049 93.917 109.252 92.573 109.252ZM106.364 109.168C105.16 109.168 104.075 108.923 103.109 108.433C102.157 107.929 101.408 107.236 100.862 106.354C100.33 105.472 100.064 104.471 100.064 103.351C100.064 102.231 100.33 101.23 100.862 100.348C101.408 99.4658 102.157 98.7798 103.109 98.2898C104.075 97.7858 105.16 97.5338 106.364 97.5338C107.554 97.5338 108.59 97.7858 109.472 98.2898C110.368 98.7798 111.019 99.4868 111.425 100.411L108.884 101.776C108.296 100.74 107.449 100.222 106.343 100.222C105.489 100.222 104.782 100.502 104.222 101.062C103.662 101.622 103.382 102.385 103.382 103.351C103.382 104.317 103.662 105.08 104.222 105.64C104.782 106.2 105.489 106.48 106.343 106.48C107.463 106.48 108.31 105.962 108.884 104.926L111.425 106.312C111.019 107.208 110.368 107.908 109.472 108.412C108.59 108.916 107.554 109.168 106.364 109.168ZM117.868 97.5338C119.618 97.5338 120.962 97.9538 121.9 98.7938C122.838 99.6198 123.307 100.873 123.307 102.553V109H120.241V107.593C119.625 108.643 118.477 109.168 116.797 109.168C115.929 109.168 115.173 109.021 114.529 108.727C113.899 108.433 113.416 108.027 113.08 107.509C112.744 106.991 112.576 106.403 112.576 105.745C112.576 104.695 112.968 103.869 113.752 103.267C114.55 102.665 115.775 102.364 117.427 102.364H120.031C120.031 101.65 119.814 101.104 119.38 100.726C118.946 100.334 118.295 100.138 117.427 100.138C116.825 100.138 116.23 100.236 115.642 100.432C115.068 100.614 114.578 100.866 114.172 101.188L112.996 98.8988C113.612 98.4648 114.347 98.1288 115.201 97.8908C116.069 97.6528 116.958 97.5338 117.868 97.5338ZM117.616 106.963C118.176 106.963 118.673 106.837 119.107 106.585C119.541 106.319 119.849 105.934 120.031 105.43V104.275H117.784C116.44 104.275 115.768 104.716 115.768 105.598C115.768 106.018 115.929 106.354 116.251 106.606C116.587 106.844 117.042 106.963 117.616 106.963ZM133.139 97.5338C134.539 97.5338 135.666 97.9538 136.52 98.7938C137.388 99.6338 137.822 100.88 137.822 102.532V109H134.546V103.036C134.546 102.14 134.35 101.475 133.958 101.041C133.566 100.593 132.999 100.369 132.257 100.369C131.431 100.369 130.773 100.628 130.283 101.146C129.793 101.65 129.548 102.406 129.548 103.414V109H126.272V97.7018H129.401V99.0248C129.835 98.5488 130.374 98.1848 131.018 97.9328C131.662 97.6668 132.369 97.5338 133.139 97.5338ZM162.867 110.575C162.391 111.163 161.81 111.611 161.124 111.919C160.452 112.227 159.71 112.381 158.898 112.381C157.806 112.381 156.819 112.143 155.937 111.667C155.055 111.205 154.047 110.379 152.913 109.189C151.583 109.021 150.393 108.594 149.343 107.908C148.307 107.222 147.495 106.34 146.907 105.262C146.333 104.17 146.046 102.966 146.046 101.65C146.046 100.208 146.389 98.9128 147.075 97.7648C147.775 96.6028 148.734 95.6928 149.952 95.0348C151.184 94.3768 152.563 94.0478 154.089 94.0478C155.615 94.0478 156.987 94.3768 158.205 95.0348C159.423 95.6928 160.382 96.6028 161.082 97.7648C161.782 98.9128 162.132 100.208 162.132 101.65C162.132 103.358 161.649 104.856 160.683 106.144C159.731 107.432 158.464 108.328 156.882 108.832C157.232 109.196 157.568 109.455 157.89 109.609C158.226 109.777 158.583 109.861 158.961 109.861C159.871 109.861 160.669 109.497 161.355 108.769L162.867 110.575ZM149.49 101.65C149.49 102.56 149.686 103.372 150.078 104.086C150.484 104.8 151.037 105.36 151.737 105.766C152.437 106.158 153.221 106.354 154.089 106.354C154.957 106.354 155.741 106.158 156.441 105.766C157.141 105.36 157.687 104.8 158.079 104.086C158.485 103.372 158.688 102.56 158.688 101.65C158.688 100.74 158.485 99.9278 158.079 99.2138C157.687 98.4998 157.141 97.9468 156.441 97.5548C155.741 97.1488 154.957 96.9458 154.089 96.9458C153.221 96.9458 152.437 97.1488 151.737 97.5548C151.037 97.9468 150.484 98.4998 150.078 99.2138C149.686 99.9278 149.49 100.74 149.49 101.65ZM174.054 109L171.219 104.905H171.051H168.09V109H164.688V94.2998H171.051C172.353 94.2998 173.48 94.5168 174.432 94.9508C175.398 95.3848 176.14 96.0008 176.658 96.7988C177.176 97.5968 177.435 98.5418 177.435 99.6338C177.435 100.726 177.169 101.671 176.637 102.469C176.119 103.253 175.377 103.855 174.411 104.275L177.708 109H174.054ZM173.991 99.6338C173.991 98.8078 173.725 98.1778 173.193 97.7438C172.661 97.2958 171.884 97.0718 170.862 97.0718H168.09V102.196H170.862C171.884 102.196 172.661 101.972 173.193 101.524C173.725 101.076 173.991 100.446 173.991 99.6338ZM179.418 101.776H185.361V104.401H179.418V101.776ZM193.604 109.168C192.4 109.168 191.315 108.923 190.349 108.433C189.397 107.929 188.648 107.236 188.102 106.354C187.57 105.472 187.304 104.471 187.304 103.351C187.304 102.231 187.57 101.23 188.102 100.348C188.648 99.4658 189.397 98.7798 190.349 98.2898C191.315 97.7858 192.4 97.5338 193.604 97.5338C194.794 97.5338 195.83 97.7858 196.712 98.2898C197.608 98.7798 198.259 99.4868 198.665 100.411L196.124 101.776C195.536 100.74 194.689 100.222 193.583 100.222C192.729 100.222 192.022 100.502 191.462 101.062C190.902 101.622 190.622 102.385 190.622 103.351C190.622 104.317 190.902 105.08 191.462 105.64C192.022 106.2 192.729 106.48 193.583 106.48C194.703 106.48 195.55 105.962 196.124 104.926L198.665 106.312C198.259 107.208 197.608 107.908 196.712 108.412C195.83 108.916 194.794 109.168 193.604 109.168ZM205.784 109.168C204.594 109.168 203.523 108.923 202.571 108.433C201.633 107.929 200.898 107.236 200.366 106.354C199.834 105.472 199.568 104.471 199.568 103.351C199.568 102.231 199.834 101.23 200.366 100.348C200.898 99.4658 201.633 98.7798 202.571 98.2898C203.523 97.7858 204.594 97.5338 205.784 97.5338C206.974 97.5338 208.038 97.7858 208.976 98.2898C209.914 98.7798 210.649 99.4658 211.181 100.348C211.713 101.23 211.979 102.231 211.979 103.351C211.979 104.471 211.713 105.472 211.181 106.354C210.649 107.236 209.914 107.929 208.976 108.433C208.038 108.923 206.974 109.168 205.784 109.168ZM205.784 106.48C206.624 106.48 207.31 106.2 207.842 105.64C208.388 105.066 208.661 104.303 208.661 103.351C208.661 102.399 208.388 101.643 207.842 101.083C207.31 100.509 206.624 100.222 205.784 100.222C204.944 100.222 204.251 100.509 203.705 101.083C203.159 101.643 202.886 102.399 202.886 103.351C202.886 104.303 203.159 105.066 203.705 105.64C204.251 106.2 204.944 106.48 205.784 106.48ZM225.676 93.4178V109H222.547V107.698C221.735 108.678 220.559 109.168 219.019 109.168C217.955 109.168 216.989 108.93 216.121 108.454C215.267 107.978 214.595 107.299 214.105 106.417C213.615 105.535 213.37 104.513 213.37 103.351C213.37 102.189 213.615 101.167 214.105 100.285C214.595 99.4028 215.267 98.7238 216.121 98.2478C216.989 97.7718 217.955 97.5338 219.019 97.5338C220.461 97.5338 221.588 97.9888 222.4 98.8988V93.4178H225.676ZM219.586 106.48C220.412 106.48 221.098 106.2 221.644 105.64C222.19 105.066 222.463 104.303 222.463 103.351C222.463 102.399 222.19 101.643 221.644 101.083C221.098 100.509 220.412 100.222 219.586 100.222C218.746 100.222 218.053 100.509 217.507 101.083C216.961 101.643 216.688 102.399 216.688 103.351C216.688 104.303 216.961 105.066 217.507 105.64C218.053 106.2 218.746 106.48 219.586 106.48ZM239.775 103.393C239.775 103.435 239.754 103.729 239.712 104.275H231.165C231.319 104.975 231.683 105.528 232.257 105.934C232.831 106.34 233.545 106.543 234.399 106.543C234.987 106.543 235.505 106.459 235.953 106.291C236.415 106.109 236.842 105.829 237.234 105.451L238.977 107.341C237.913 108.559 236.359 109.168 234.315 109.168C233.041 109.168 231.914 108.923 230.934 108.433C229.954 107.929 229.198 107.236 228.666 106.354C228.134 105.472 227.868 104.471 227.868 103.351C227.868 102.245 228.127 101.251 228.645 100.369C229.177 99.4728 229.898 98.7798 230.808 98.2898C231.732 97.7858 232.761 97.5338 233.895 97.5338C235.001 97.5338 236.002 97.7718 236.898 98.2478C237.794 98.7238 238.494 99.4098 238.998 100.306C239.516 101.188 239.775 102.217 239.775 103.393ZM233.916 100.012C233.174 100.012 232.551 100.222 232.047 100.642C231.543 101.062 231.235 101.636 231.123 102.364H236.688C236.576 101.65 236.268 101.083 235.764 100.663C235.26 100.229 234.644 100.012 233.916 100.012Z" fill="white"/>
</svg>
