<svg width="1440" height="496" viewBox="0 0 1440 496" fill="none" xmlns="http://www.w3.org/2000/svg">
<g opacity="0.5">
<path d="M-225.25 334.5H-251.5V492H-221.094V389.188L-148.906 492H-122.656V334.5H-152.844V437.313L-225.25 334.5Z" fill="#372B43" fill-opacity="0.62"/>
<path d="M-20.0488 495.281C1.82617 495.281 23.4824 486.969 37.9199 469.469C50.8262 453.719 55.8574 435.125 56.2949 413.25C55.8574 392.25 51.2637 373 37.9199 356.813C23.9199 339.75 2.70117 331.219 -20.0488 331.219C-42.7988 331.219 -64.2363 339.531 -78.0176 356.813C-90.7051 372.125 -96.3926 392.25 -96.3926 413.25C-96.3926 434.25 -90.7051 454.156 -78.0176 469.469C-64.4551 486.531 -42.5801 495.281 -20.0488 495.281ZM-20.0488 467.281C-33.6113 467.5 -46.7363 462.031 -54.3926 451.531C-62.4863 441.031 -64.8926 427.031 -65.1113 413.25C-64.8926 399.469 -62.4863 385.25 -54.3926 374.969C-46.7363 364.469 -33.6113 359 -20.0488 359.219C-6.48633 359 6.41992 364.469 14.2949 374.969C22.1699 385.25 24.7949 399.469 24.7949 413.25C24.7949 427.031 22.1699 441.031 14.2949 451.531C6.41992 462.031 -6.48633 467.5 -20.0488 467.281Z" fill="#372B43" fill-opacity="0.62"/>
<path d="M192.016 334.5H62.9531V364.25H112.609V492H142.359V364.25H192.016V334.5Z" fill="#372B43" fill-opacity="0.62"/>
<path d="M301.09 492H331.715L283.59 334.5H239.184L191.059 492H221.684L229.121 467.5H293.434L301.09 492ZM237.652 439.5L261.059 362.5L284.902 439.5H237.652Z" fill="#372B43" fill-opacity="0.62"/>
<path d="M456.279 415.219C453.873 412.156 451.248 409.313 448.404 406.688C448.623 406.469 449.061 406.031 449.279 405.594C455.186 398.156 458.686 388.531 458.467 379.344C458.248 369.719 455.186 360.094 449.279 352.656C444.029 345 435.936 339.313 426.748 336.688C422.373 335.156 417.779 334.5 413.186 334.5H350.404V492H416.904C421.936 492 426.967 490.906 431.779 489.594C441.404 486.531 450.154 480.625 456.279 472.531C462.404 464 465.686 453.938 465.686 443.875C465.686 433.375 462.404 423.313 456.279 415.219ZM412.967 362.281C416.467 362.281 421.717 365.125 423.904 367.969C426.748 371.031 428.061 375.188 428.279 379.344C428.498 383.063 426.967 386.781 424.561 389.625C422.154 392.688 417.779 395.094 414.717 395.75H380.592V362.281H412.967ZM435.717 443.875C435.498 449.563 433.529 455.031 429.154 458.75C425.654 461.813 421.279 464 416.467 464H380.592V423.75H416.467C421.498 423.75 425.654 424.844 430.029 429.219C433.748 433.156 435.936 438.625 435.717 443.875Z" fill="#372B43" fill-opacity="0.62"/>
</g>
<g opacity="0.5">
<path d="M847.75 3.5H821.5V161H851.906V58.1875L924.094 161H950.344V3.5H920.156V106.313L847.75 3.5Z" fill="#372B43" fill-opacity="0.62"/>
<path d="M1052.95 164.281C1074.83 164.281 1096.48 155.969 1110.92 138.469C1123.83 122.719 1128.86 104.125 1129.29 82.25C1128.86 61.25 1124.26 42 1110.92 25.8125C1096.92 8.75001 1075.7 0.21875 1052.95 0.21875C1030.2 0.21875 1008.76 8.53125 994.982 25.8125C982.295 41.125 976.607 61.25 976.607 82.25C976.607 103.25 982.295 123.156 994.982 138.469C1008.54 155.531 1030.42 164.281 1052.95 164.281ZM1052.95 136.281C1039.39 136.5 1026.26 131.031 1018.61 120.531C1010.51 110.031 1008.11 96.0313 1007.89 82.25C1008.11 68.4688 1010.51 54.25 1018.61 43.9688C1026.26 33.4688 1039.39 28 1052.95 28.2188C1066.51 28 1079.42 33.4688 1087.29 43.9688C1095.17 54.25 1097.79 68.4688 1097.79 82.25C1097.79 96.0313 1095.17 110.031 1087.29 120.531C1079.42 131.031 1066.51 136.5 1052.95 136.281Z" fill="#372B43" fill-opacity="0.62"/>
<path d="M1265.02 3.5H1135.95V33.25H1185.61V161H1215.36V33.25H1265.02V3.5Z" fill="#372B43" fill-opacity="0.62"/>
<path d="M1374.09 161H1404.71L1356.59 3.5H1312.18L1264.06 161H1294.68L1302.12 136.5H1366.43L1374.09 161ZM1310.65 108.5L1334.06 31.5L1357.9 108.5H1310.65Z" fill="#372B43" fill-opacity="0.62"/>
<path d="M1529.28 84.2188C1526.87 81.1563 1524.25 78.3125 1521.4 75.6875C1521.62 75.4688 1522.06 75.0313 1522.28 74.5938C1528.19 67.1563 1531.69 57.5313 1531.47 48.3438C1531.25 38.7188 1528.19 29.0938 1522.28 21.6563C1517.03 14 1508.94 8.3125 1499.75 5.6875C1495.37 4.15625 1490.78 3.5 1486.19 3.5H1423.4V161H1489.9C1494.94 161 1499.97 159.906 1504.78 158.594C1514.4 155.531 1523.15 149.625 1529.28 141.531C1535.4 133 1538.69 122.938 1538.69 112.875C1538.69 102.375 1535.4 92.3125 1529.28 84.2188ZM1485.97 31.2813C1489.47 31.2813 1494.72 34.125 1496.9 36.9688C1499.75 40.0313 1501.06 44.1875 1501.28 48.3438C1501.5 52.0625 1499.97 55.7813 1497.56 58.625C1495.15 61.6875 1490.78 64.0938 1487.72 64.75H1453.59V31.2813H1485.97ZM1508.72 112.875C1508.5 118.563 1506.53 124.031 1502.15 127.75C1498.65 130.813 1494.28 133 1489.47 133H1453.59V92.75H1489.47C1494.5 92.75 1498.65 93.8438 1503.03 98.2188C1506.75 102.156 1508.94 107.625 1508.72 112.875Z" fill="#372B43" fill-opacity="0.62"/>
</g>
<g opacity="0.5">
<path d="M996.75 290.5H970.5V448H1000.91V345.188L1073.09 448H1099.34V290.5H1069.16V393.313L996.75 290.5Z" fill="#372B43" fill-opacity="0.62"/>
<path d="M1201.95 451.281C1223.83 451.281 1245.48 442.969 1259.92 425.469C1272.83 409.719 1277.86 391.125 1278.29 369.25C1277.86 348.25 1273.26 329 1259.92 312.813C1245.92 295.75 1224.7 287.219 1201.95 287.219C1179.2 287.219 1157.76 295.531 1143.98 312.813C1131.29 328.125 1125.61 348.25 1125.61 369.25C1125.61 390.25 1131.29 410.156 1143.98 425.469C1157.54 442.531 1179.42 451.281 1201.95 451.281ZM1201.95 423.281C1188.39 423.5 1175.26 418.031 1167.61 407.531C1159.51 397.031 1157.11 383.031 1156.89 369.25C1157.11 355.469 1159.51 341.25 1167.61 330.969C1175.26 320.469 1188.39 315 1201.95 315.219C1215.51 315 1228.42 320.469 1236.29 330.969C1244.17 341.25 1246.79 355.469 1246.79 369.25C1246.79 383.031 1244.17 397.031 1236.29 407.531C1228.42 418.031 1215.51 423.5 1201.95 423.281Z" fill="#372B43" fill-opacity="0.62"/>
<path d="M1414.02 290.5H1284.95V320.25H1334.61V448H1364.36V320.25H1414.02V290.5Z" fill="#372B43" fill-opacity="0.62"/>
<path d="M1523.09 448H1553.71L1505.59 290.5H1461.18L1413.06 448H1443.68L1451.12 423.5H1515.43L1523.09 448ZM1459.65 395.5L1483.06 318.5L1506.9 395.5H1459.65Z" fill="#372B43" fill-opacity="0.62"/>
<path d="M1678.28 371.219C1675.87 368.156 1673.25 365.313 1670.4 362.688C1670.62 362.469 1671.06 362.031 1671.28 361.594C1677.19 354.156 1680.69 344.531 1680.47 335.344C1680.25 325.719 1677.19 316.094 1671.28 308.656C1666.03 301 1657.94 295.313 1648.75 292.688C1644.37 291.156 1639.78 290.5 1635.19 290.5H1572.4V448H1638.9C1643.94 448 1648.97 446.906 1653.78 445.594C1663.4 442.531 1672.15 436.625 1678.28 428.531C1684.4 420 1687.69 409.938 1687.69 399.875C1687.69 389.375 1684.4 379.313 1678.28 371.219ZM1634.97 318.281C1638.47 318.281 1643.72 321.125 1645.9 323.969C1648.75 327.031 1650.06 331.188 1650.28 335.344C1650.5 339.063 1648.97 342.781 1646.56 345.625C1644.15 348.688 1639.78 351.094 1636.72 351.75H1602.59V318.281H1634.97ZM1657.72 399.875C1657.5 405.563 1655.53 411.031 1651.15 414.75C1647.65 417.813 1643.28 420 1638.47 420H1602.59V379.75H1638.47C1643.5 379.75 1647.65 380.844 1652.03 385.219C1655.75 389.156 1657.94 394.625 1657.72 399.875Z" fill="#372B43" fill-opacity="0.62"/>
</g>
<g opacity="0.5">
<path d="M-43.25 3.5H-69.5V161H-39.0938V58.1875L33.0938 161H59.3438V3.5H29.1563V106.313L-43.25 3.5Z" fill="#372B43" fill-opacity="0.62"/>
<path d="M161.951 164.281C183.826 164.281 205.482 155.969 219.92 138.469C232.826 122.719 237.857 104.125 238.295 82.25C237.857 61.25 233.264 42 219.92 25.8125C205.92 8.75001 184.701 0.21875 161.951 0.21875C139.201 0.21875 117.764 8.53125 103.982 25.8125C91.2949 41.125 85.6074 61.25 85.6074 82.25C85.6074 103.25 91.2949 123.156 103.982 138.469C117.545 155.531 139.42 164.281 161.951 164.281ZM161.951 136.281C148.389 136.5 135.264 131.031 127.607 120.531C119.514 110.031 117.107 96.0313 116.889 82.25C117.107 68.4688 119.514 54.25 127.607 43.9688C135.264 33.4688 148.389 28 161.951 28.2188C175.514 28 188.42 33.4688 196.295 43.9688C204.17 54.25 206.795 68.4688 206.795 82.25C206.795 96.0313 204.17 110.031 196.295 120.531C188.42 131.031 175.514 136.5 161.951 136.281Z" fill="#372B43" fill-opacity="0.62"/>
<path d="M374.016 3.5H244.953V33.25H294.609V161H324.359V33.25H374.016V3.5Z" fill="#372B43" fill-opacity="0.62"/>
<path d="M483.09 161H513.715L465.59 3.5H421.184L373.059 161H403.684L411.121 136.5H475.434L483.09 161ZM419.652 108.5L443.059 31.5L466.902 108.5H419.652Z" fill="#372B43" fill-opacity="0.62"/>
<path d="M638.279 84.2188C635.873 81.1563 633.248 78.3125 630.404 75.6875C630.623 75.4688 631.061 75.0313 631.279 74.5938C637.186 67.1563 640.686 57.5313 640.467 48.3438C640.248 38.7188 637.186 29.0938 631.279 21.6563C626.029 14 617.936 8.3125 608.748 5.6875C604.373 4.15625 599.779 3.5 595.186 3.5H532.404V161H598.904C603.936 161 608.967 159.906 613.779 158.594C623.404 155.531 632.154 149.625 638.279 141.531C644.404 133 647.686 122.938 647.686 112.875C647.686 102.375 644.404 92.3125 638.279 84.2188ZM594.967 31.2813C598.467 31.2813 603.717 34.125 605.904 36.9688C608.748 40.0313 610.061 44.1875 610.279 48.3438C610.498 52.0625 608.967 55.7813 606.561 58.625C604.154 61.6875 599.779 64.0938 596.717 64.75H562.592V31.2813H594.967ZM617.717 112.875C617.498 118.563 615.529 124.031 611.154 127.75C607.654 130.813 603.279 133 598.467 133H562.592V92.75H598.467C603.498 92.75 607.654 93.8438 612.029 98.2188C615.748 102.156 617.936 107.625 617.717 112.875Z" fill="#372B43" fill-opacity="0.62"/>
</g>
</svg>
